<svg width="1440" height="294" viewBox="0 0 1440 294" fill="none" xmlns="http://www.w3.org/2000/svg">
<rect width="1440" height="294" fill="#07A189"/>
<mask id="mask0_119_187" style="mask-type:alpha" maskUnits="userSpaceOnUse" x="0" y="0" width="1440" height="294">
<rect width="1440" height="294" fill="#07A189"/>
</mask>
<g mask="url(#mask0_119_187)">
<path d="M1559.37 173.504C1538.68 196.629 1514.74 207.744 1491.81 218.459C1468.88 229.174 1447.12 239.309 1428.21 260.447C1409.13 281.765 1401.63 304.33 1393.51 328.303C1385.4 352.275 1377 377.294 1356.3 400.419C1335.61 423.544 1311.67 434.659 1288.75 445.374C1265.82 456.089 1244.06 466.224 1225.14 487.362C1206.06 508.68 1198.56 531.245 1190.45 555.218C1182.33 579.19 1173.93 604.209 1153.24 627.334C1132.54 650.459 1108.61 661.574 1085.68 672.289C1062.75 683.004 1040.99 693.139 1022.08 714.277C1003 735.595 995.494 758.16 987.38 782.133C979.266 806.105 970.867 831.124 950.173 854.249C941.119 864.366 930.62 873.19 918.171 880.92L911.763 870.63C923.384 863.461 932.894 855.379 941.139 846.165C960.217 824.847 967.722 802.282 975.836 778.309C983.95 754.336 992.349 729.318 1013.04 706.193C1033.74 683.068 1057.67 671.953 1080.6 661.238C1103.53 650.523 1125.29 640.388 1144.21 619.25C1163.28 597.932 1170.79 575.367 1178.9 551.394C1187.02 527.421 1195.41 502.403 1216.11 479.278C1236.8 456.153 1260.74 445.038 1283.67 434.323C1306.6 423.608 1328.35 413.473 1347.27 392.335C1366.35 371.017 1373.85 348.452 1381.97 324.479C1390.08 300.506 1398.48 275.488 1419.17 252.363C1439.87 229.238 1463.81 218.123 1486.73 207.408C1509.66 196.693 1531.42 186.558 1550.34 165.42C1558.58 156.206 1565.38 145.699 1571.4 133.518L1582.34 138.749C1576.03 151.976 1568.59 163.206 1559.37 173.504Z" fill="#078874" fill-opacity="0.49"/>
<path d="M1514.92 133.731C1494.23 156.856 1470.29 167.97 1447.36 178.685C1424.44 189.4 1402.68 199.535 1383.76 220.673C1364.68 241.992 1357.18 264.557 1349.06 288.529C1340.95 312.502 1332.55 337.521 1311.86 360.646C1291.16 383.771 1267.23 394.885 1244.3 405.6C1221.37 416.315 1199.61 426.45 1180.69 447.588C1161.62 468.907 1154.11 491.472 1146 515.444C1137.88 539.417 1129.49 564.436 1108.79 587.561C1088.1 610.686 1064.16 621.8 1041.23 632.515C1018.3 643.23 996.545 653.365 977.629 674.503C958.551 695.822 951.046 718.387 942.933 742.359C934.819 766.332 926.42 791.351 905.725 814.476C896.672 824.593 886.172 833.417 873.724 841.147L867.315 830.857C878.937 823.688 888.447 815.606 896.692 806.392C915.77 785.073 923.275 762.508 931.389 738.536C939.502 714.563 947.901 689.544 968.596 666.419C989.291 643.294 1013.23 632.18 1036.16 621.465C1059.08 610.75 1080.84 600.615 1099.76 579.477C1118.84 558.158 1126.34 535.593 1134.45 511.621C1142.57 487.648 1150.97 462.629 1171.66 439.504C1192.36 416.379 1216.29 405.265 1239.22 394.55C1262.15 383.835 1283.91 373.7 1302.82 352.562C1321.9 331.243 1329.41 308.678 1337.52 284.706C1345.63 260.733 1354.03 235.715 1374.73 212.589C1395.42 189.464 1419.36 178.35 1442.29 167.635C1465.21 156.92 1486.97 146.785 1505.89 125.647C1514.13 116.433 1520.94 105.926 1526.96 93.7446L1537.89 98.9757C1531.59 112.203 1524.14 123.433 1514.92 133.731Z" fill="#078874" fill-opacity="0.49"/>
<path d="M1470.48 93.9495C1449.78 117.075 1425.85 128.189 1402.92 138.904C1379.99 149.619 1358.23 159.754 1339.32 180.892C1320.24 202.211 1312.73 224.776 1304.62 248.748C1296.51 272.721 1288.11 297.739 1267.41 320.864C1246.72 343.99 1222.78 355.104 1199.85 365.819C1176.92 376.534 1155.17 386.669 1136.25 407.807C1117.17 429.125 1109.67 451.691 1101.55 475.663C1093.44 499.636 1085.04 524.654 1064.35 547.779C1043.65 570.905 1019.71 582.019 996.787 592.734C973.859 603.449 952.1 613.584 933.184 634.722C914.106 656.04 906.601 678.606 898.487 702.578C890.374 726.551 881.975 751.569 861.28 774.694C852.226 784.812 841.727 793.635 829.278 801.366L822.87 791.076C834.491 783.907 844.001 775.824 852.247 766.611C871.325 745.292 878.83 722.727 886.943 698.754C895.057 674.782 903.456 649.763 924.151 626.638C944.845 603.513 968.781 592.399 991.71 581.684C1014.64 570.969 1036.4 560.833 1055.31 539.696C1074.39 518.377 1081.9 495.812 1090.01 471.839C1098.12 447.867 1106.52 422.848 1127.22 399.723C1147.91 376.598 1171.85 365.484 1194.78 354.769C1217.7 344.054 1239.46 333.918 1258.38 312.781C1277.46 291.462 1284.96 268.897 1293.07 244.924C1301.19 220.952 1309.59 195.933 1330.28 172.808C1350.98 149.683 1374.91 138.569 1397.84 127.854C1420.77 117.139 1442.53 107.003 1461.44 85.8657C1469.69 76.6517 1476.49 66.1444 1482.51 53.9634L1493.45 59.1945C1487.14 72.4216 1479.69 83.6516 1470.48 93.9495Z" fill="#078874" fill-opacity="0.49"/>
<path d="M1426.04 54.1918C1405.34 77.3168 1381.41 88.4312 1358.48 99.1463C1335.55 109.861 1313.79 119.996 1294.88 141.134C1275.8 162.453 1268.29 185.018 1260.18 208.99C1252.07 232.963 1243.67 257.982 1222.97 281.107C1202.28 304.232 1178.34 315.346 1155.41 326.061C1132.48 336.776 1110.73 346.911 1091.81 368.049C1072.73 389.368 1065.23 411.933 1057.11 435.905C1049 459.878 1040.6 484.897 1019.91 508.022C999.212 531.147 975.276 542.261 952.347 552.976C929.419 563.691 907.661 573.826 888.744 594.964C869.667 616.283 862.162 638.848 854.048 662.82C845.934 686.793 837.535 711.812 816.841 734.937C807.787 745.054 797.288 753.878 784.839 761.608L778.431 751.318C790.052 744.149 799.562 736.067 807.807 726.853C826.885 705.534 834.39 682.969 842.504 658.997C850.618 635.024 859.017 610.005 879.711 586.88C900.406 563.755 924.342 552.641 947.27 541.926C970.199 531.211 991.957 521.076 1010.87 499.938C1029.95 478.619 1037.46 456.054 1045.57 432.082C1053.68 408.109 1062.08 383.091 1082.78 359.965C1103.47 336.84 1127.41 325.726 1150.34 315.011C1173.26 304.296 1195.02 294.161 1213.94 273.023C1233.02 251.704 1240.52 229.139 1248.64 205.167C1256.75 181.194 1265.15 156.176 1285.84 133.05C1306.54 109.925 1330.47 98.811 1353.4 88.0959C1376.33 77.3808 1398.09 67.2457 1417 46.1079C1425.25 36.894 1432.05 26.3867 1438.07 14.2056L1449.01 19.4368C1442.7 32.6639 1435.25 43.8938 1426.04 54.1918Z" fill="#078874" fill-opacity="0.49"/>
<path d="M1381.59 14.4182C1360.9 37.5432 1336.96 48.6576 1314.03 59.3727C1291.11 70.0878 1269.35 80.2229 1250.43 101.361C1231.35 122.679 1223.85 145.244 1215.73 169.217C1207.62 193.189 1199.22 218.208 1178.53 241.333C1157.83 264.458 1133.9 275.573 1110.97 286.288C1088.04 297.003 1066.28 307.138 1047.36 328.276C1028.29 349.594 1020.78 372.159 1012.67 396.132C1004.55 420.104 996.156 445.123 975.461 468.248C954.766 491.373 930.83 502.488 907.902 513.203C884.974 523.918 863.215 534.053 844.299 555.191C825.221 576.509 817.716 599.074 809.603 623.047C801.489 647.019 793.09 672.038 772.395 695.163C763.341 705.28 752.842 714.104 740.394 721.834L733.985 711.544C745.606 704.375 755.117 696.293 763.362 687.079C782.44 665.761 789.945 643.196 798.059 619.223C806.172 595.25 814.571 570.232 835.266 547.107C855.961 523.982 879.897 512.867 902.825 502.152C925.753 491.437 947.512 481.302 966.428 460.164C985.506 438.846 993.011 416.281 1001.12 392.308C1009.24 368.336 1017.64 343.317 1038.33 320.192C1059.03 297.067 1082.96 285.952 1105.89 275.237C1128.82 264.522 1150.58 254.387 1169.49 233.249C1188.57 211.931 1196.08 189.366 1204.19 165.393C1212.3 141.421 1220.7 116.402 1241.4 93.2769C1262.09 70.1518 1286.03 59.0374 1308.96 48.3223C1331.88 37.6072 1353.64 27.4721 1372.56 6.33435C1380.8 -2.87959 1387.6 -13.3869 1393.63 -25.568L1404.56 -20.3368C1398.25 -7.10971 1390.81 4.12026 1381.59 14.4182Z" fill="#078874" fill-opacity="0.49"/>
<path d="M1337.15 -25.3552C1316.46 -2.23014 1292.52 8.88425 1269.59 19.5994C1246.67 30.3144 1224.91 40.4496 1205.99 61.5874C1186.91 82.9058 1179.41 105.471 1171.29 129.444C1163.18 153.416 1154.78 178.435 1134.09 201.56C1113.39 224.685 1089.46 235.799 1066.53 246.514C1043.6 257.229 1021.84 267.365 1002.93 288.502C983.848 309.821 976.343 332.386 968.229 356.359C960.115 380.331 951.716 405.35 931.022 428.475C910.327 451.6 886.391 462.714 863.463 473.429C840.534 484.144 818.776 494.28 799.86 515.417C780.782 536.736 773.277 559.301 765.163 583.274C757.05 607.246 748.65 632.265 727.956 655.39C718.902 665.507 708.403 674.331 695.954 682.061L689.546 671.771C701.167 664.602 710.677 656.52 718.923 647.306C738 625.987 745.505 603.422 753.619 579.45C761.733 555.477 770.132 530.459 790.826 507.333C811.521 484.208 835.457 473.094 858.385 462.379C881.314 451.664 903.072 441.529 921.988 420.391C941.066 399.072 948.571 376.507 956.685 352.535C964.799 328.562 973.198 303.544 993.892 280.418C1014.59 257.293 1038.52 246.179 1061.45 235.464C1084.38 224.749 1106.14 214.614 1125.05 193.476C1144.13 172.157 1151.64 149.592 1159.75 125.62C1167.86 101.647 1176.26 76.6286 1196.96 53.5035C1217.65 30.3784 1241.59 19.264 1264.52 8.54893C1287.45 -2.16618 1309.2 -12.3013 1328.12 -33.439C1336.37 -42.653 1343.17 -53.1603 1349.19 -65.3413L1360.12 -60.1102C1353.82 -46.8831 1346.37 -35.6531 1337.15 -25.3552Z" fill="#078874" fill-opacity="0.49"/>
<path d="M1292.71 -65.1287C1272.01 -42.0037 1248.08 -30.8893 1225.15 -20.1742C1202.22 -9.45909 1180.46 0.676051 1161.55 21.8139C1142.47 43.1323 1134.96 65.6975 1126.85 89.6701C1118.74 113.643 1110.34 138.661 1089.64 161.786C1068.95 184.911 1045.01 196.026 1022.08 206.741C999.155 217.456 977.396 227.591 958.48 248.729C939.402 270.047 931.897 292.612 923.784 316.585C915.67 340.558 907.271 365.576 886.576 388.701C865.882 411.826 841.945 422.941 819.017 433.656C796.089 444.371 774.331 454.506 755.414 475.644C736.337 496.962 728.832 519.527 720.718 543.5C712.604 567.473 704.205 592.491 683.511 615.616C674.457 625.733 663.957 634.557 651.509 642.287L645.1 631.998C656.722 624.828 666.232 616.746 674.477 607.532C693.555 586.214 701.06 563.649 709.174 539.676C717.287 515.704 725.687 490.685 746.381 467.56C767.076 444.435 791.012 433.32 813.94 422.605C836.868 411.89 858.627 401.755 877.543 380.617C896.621 359.299 904.126 336.734 912.239 312.761C920.353 288.789 928.752 263.77 949.447 240.645C970.141 217.52 994.078 206.405 1017.01 195.69C1039.93 184.975 1061.69 174.84 1080.61 153.702C1099.69 132.384 1107.19 109.819 1115.31 85.8462C1123.42 61.8737 1131.82 36.8551 1152.51 13.73C1173.21 -9.39508 1197.14 -20.5095 1220.07 -31.2246C1243 -41.9397 1264.76 -52.0748 1283.67 -73.2125C1291.92 -82.4265 1298.72 -92.9338 1304.74 -105.115L1315.68 -99.8837C1309.37 -86.6566 1301.92 -75.4266 1292.71 -65.1287Z" fill="#078874" fill-opacity="0.49"/>
<path d="M1248.26 -104.902C1227.57 -81.7771 1203.63 -70.6627 1180.7 -59.9476C1157.77 -49.2326 1136.01 -39.0974 1117.1 -17.9596C1098.02 3.35884 1090.52 25.924 1082.4 49.8966C1074.29 73.8691 1065.89 98.8877 1045.19 122.013C1024.5 145.138 1000.56 156.252 977.636 166.967C954.707 177.682 932.949 187.818 914.033 208.955C894.955 230.274 887.45 252.839 879.336 276.812C871.223 300.784 862.824 325.803 842.129 348.928C821.434 372.053 797.498 383.167 774.57 393.882C751.642 404.597 729.883 414.733 710.967 435.87C691.889 457.189 684.384 479.754 676.271 503.727C668.157 527.699 659.758 552.718 639.063 575.843C630.009 585.96 619.51 594.784 607.062 602.514L600.653 592.224C612.274 585.055 621.785 576.973 630.03 567.759C649.108 546.44 656.613 523.875 664.727 499.903C672.84 475.93 681.239 450.912 701.934 427.786C722.628 404.661 746.565 393.547 769.493 382.832C792.421 372.117 814.18 361.982 833.096 340.844C852.174 319.526 859.679 296.96 867.792 272.988C875.906 249.015 884.305 223.997 905 200.872C925.694 177.746 949.63 166.632 972.559 155.917C995.487 145.202 1017.25 135.067 1036.16 113.929C1055.24 92.6105 1062.74 70.0453 1070.86 46.0728C1078.97 22.1002 1087.37 -2.91834 1108.07 -26.0434C1128.76 -49.1685 1152.7 -60.283 1175.62 -70.998C1198.55 -81.7131 1220.31 -91.8482 1239.23 -112.986C1247.47 -122.2 1254.27 -132.707 1260.29 -144.888L1271.23 -139.657C1264.92 -126.43 1257.48 -115.2 1248.26 -104.902Z" fill="#078874" fill-opacity="0.49"/>
<path d="M1203.82 -144.676C1183.12 -121.551 1159.19 -110.436 1136.26 -99.7211C1113.33 -89.006 1091.57 -78.8709 1072.66 -57.7331C1053.58 -36.4146 1046.07 -13.8494 1037.96 10.1231C1029.85 34.0957 1021.45 59.1142 1000.75 82.2393C980.059 105.364 956.122 116.479 933.194 127.194C910.266 137.909 888.508 148.044 869.591 169.182C850.514 190.5 843.009 213.066 834.895 237.038C826.781 261.011 818.382 286.029 797.688 309.154C776.993 332.279 753.057 343.394 730.129 354.109C707.2 364.824 685.442 374.959 666.526 396.097C647.448 417.415 639.943 439.981 631.829 463.953C623.716 487.926 615.316 512.944 594.622 536.069C585.568 546.187 575.069 555.01 562.62 562.74L556.212 552.451C567.833 545.282 577.343 537.199 585.589 527.985C604.666 506.667 612.171 484.102 620.285 460.129C628.399 436.157 636.798 411.138 657.492 388.013C678.187 364.888 702.123 353.774 725.051 343.058C747.98 332.343 769.738 322.208 788.654 301.071C807.732 279.752 815.237 257.187 823.351 233.214C831.465 209.242 839.864 184.223 860.558 161.098C881.253 137.973 905.189 126.859 928.117 116.144C951.045 105.428 972.804 95.2933 991.72 74.1555C1010.8 52.8371 1018.3 30.2719 1026.42 6.29931C1034.53 -17.6732 1042.93 -42.6918 1063.62 -65.8169C1084.32 -88.942 1108.25 -100.056 1131.18 -110.771C1154.11 -121.487 1175.87 -131.622 1194.79 -152.759C1203.03 -161.973 1209.83 -172.481 1215.85 -184.662L1226.79 -179.431C1220.48 -166.204 1213.03 -154.974 1203.82 -144.676Z" fill="#078874" fill-opacity="0.49"/>
<path d="M1159.37 -184.449C1138.68 -161.324 1114.74 -150.21 1091.81 -139.494C1068.89 -128.779 1047.13 -118.644 1028.21 -97.5065C1009.13 -76.188 1001.63 -53.6229 993.515 -29.6503C985.402 -5.67775 977.003 19.3408 956.308 42.4659C935.613 65.591 911.677 76.7054 888.749 87.4205C865.821 98.1356 844.062 108.271 825.146 129.408C806.068 150.727 798.563 173.292 790.45 197.265C782.336 221.237 773.937 246.256 753.242 269.381C732.548 292.506 708.611 303.62 685.683 314.335C662.755 325.051 640.997 335.186 622.08 356.323C603.003 377.642 595.498 400.207 587.384 424.18C579.27 448.152 570.871 473.171 550.177 496.296C541.123 506.413 530.623 515.237 518.175 522.967L511.767 512.677C523.388 505.508 532.898 497.426 541.143 488.212C560.221 466.894 567.726 444.328 575.84 420.356C583.954 396.383 592.353 371.365 613.047 348.24C633.742 325.115 657.678 314 680.606 303.285C703.534 292.57 725.293 282.435 744.209 261.297C763.287 239.979 770.792 217.413 778.906 193.441C787.019 169.468 795.418 144.45 816.113 121.325C836.807 98.1995 860.744 87.0852 883.672 76.3701C906.6 65.655 928.359 55.5199 947.275 34.3821C966.353 13.0637 973.858 -9.50156 981.971 -33.4741C990.085 -57.4466 998.484 -82.4652 1019.18 -105.59C1039.87 -128.715 1063.81 -139.83 1086.74 -150.545C1109.67 -161.26 1131.42 -171.395 1150.34 -192.533C1158.59 -201.747 1165.39 -212.254 1171.41 -224.435L1182.34 -219.204C1176.04 -205.977 1168.59 -194.747 1159.37 -184.449Z" fill="#078874" fill-opacity="0.49"/>
<path d="M1114.93 -224.219C1094.24 -201.093 1070.3 -189.979 1047.38 -179.264C1024.45 -168.549 1002.69 -158.414 983.772 -137.276C964.695 -115.958 957.19 -93.3924 949.076 -69.4198C940.962 -45.4472 932.563 -20.4287 911.869 2.69642C891.174 25.8215 867.238 36.9359 844.31 47.651C821.381 58.3661 799.623 68.5012 780.707 89.639C761.629 110.957 754.124 133.523 746.01 157.495C737.896 181.468 729.497 206.486 708.803 229.611C688.108 252.737 664.172 263.851 641.244 274.566C618.316 285.281 596.557 295.416 577.641 316.554C558.563 337.872 551.058 360.438 542.944 384.41C534.831 408.383 526.432 433.401 505.737 456.526C496.683 466.644 486.184 475.467 473.735 483.197L467.327 472.908C478.948 465.739 488.458 457.656 496.704 448.443C515.782 427.124 523.287 404.559 531.4 380.586C539.514 356.614 547.913 331.595 568.608 308.47C589.302 285.345 613.239 274.231 636.167 263.516C659.095 252.8 680.853 242.665 699.77 221.528C718.847 200.209 726.352 177.644 734.466 153.671C742.58 129.699 750.979 104.68 771.673 81.5551C792.368 58.43 816.304 47.3157 839.232 36.6006C862.161 25.8855 883.919 15.7503 902.835 -5.38741C921.913 -26.7059 929.418 -49.2711 937.532 -73.2436C945.645 -97.2162 954.045 -122.235 974.739 -145.36C995.434 -168.485 1019.37 -179.599 1042.3 -190.314C1065.23 -201.03 1086.98 -211.165 1105.9 -232.302C1114.15 -241.516 1120.95 -252.024 1126.97 -264.205L1137.9 -258.974C1131.6 -245.746 1124.15 -234.516 1114.93 -224.219Z" fill="#078874" fill-opacity="0.49"/>
<path d="M1070.49 -263.996C1049.79 -240.871 1025.86 -229.756 1002.93 -219.041C980.002 -208.326 958.243 -198.191 939.327 -177.053C920.249 -155.735 912.744 -133.17 904.631 -109.197C896.517 -85.2246 888.118 -60.206 867.423 -37.0809C846.729 -13.9558 822.792 -2.84144 799.864 7.87367C776.936 18.5887 755.177 28.7239 736.261 49.8616C717.184 71.1801 709.679 93.7453 701.565 117.718C693.451 141.69 685.052 166.709 664.358 189.834C643.663 212.959 619.727 224.074 596.798 234.789C573.87 245.504 552.112 255.639 533.196 276.777C514.118 298.095 506.613 320.66 498.499 344.633C490.385 368.605 481.986 393.624 461.292 416.749C452.238 426.866 441.739 435.69 429.29 443.42L422.882 433.13C434.503 425.961 444.013 417.879 452.259 408.665C471.336 387.347 478.841 364.782 486.955 340.809C495.069 316.836 503.468 291.818 524.162 268.693C544.857 245.568 568.793 234.453 591.721 223.738C614.65 213.023 636.408 202.888 655.324 181.75C674.402 160.432 681.907 137.867 690.021 113.894C698.134 89.9215 706.534 64.9029 727.228 41.7778C747.923 18.6527 771.859 7.53832 794.787 -3.17674C817.715 -13.8919 839.474 -24.027 858.39 -45.1647C877.468 -66.4832 884.973 -89.0484 893.086 -113.021C901.2 -136.993 909.599 -162.012 930.294 -185.137C950.988 -208.262 974.925 -219.377 997.853 -230.092C1020.78 -240.807 1042.54 -250.942 1061.46 -272.08C1069.7 -281.294 1076.5 -291.801 1082.52 -303.982L1093.46 -298.751C1087.15 -285.524 1079.7 -274.294 1070.49 -263.996Z" fill="#078874" fill-opacity="0.49"/>
<path d="M1026.04 -303.765C1005.35 -280.64 981.411 -269.526 958.483 -258.811C935.554 -248.096 913.796 -237.961 894.88 -216.823C875.802 -195.504 868.297 -172.939 860.183 -148.967C852.07 -124.994 843.671 -99.9756 822.976 -76.8505C802.281 -53.7254 778.345 -42.611 755.417 -31.8959C732.489 -21.1808 710.73 -11.0457 691.814 10.0921C672.736 31.4105 665.231 53.9757 657.118 77.9483C649.004 101.921 640.605 126.939 619.91 150.065C599.216 173.19 575.279 184.304 552.351 195.019C529.423 205.734 507.665 215.869 488.748 237.007C469.671 258.325 462.166 280.891 454.052 304.863C445.938 328.836 437.539 353.854 416.845 376.979C407.791 387.097 397.291 395.92 384.843 403.651L378.434 393.361C389.39 386.572 399.081 378.652 407.326 369.438C426.404 348.119 433.909 325.554 442.023 301.581C450.136 277.609 458.536 252.59 479.23 229.465C499.925 206.34 523.861 195.226 546.789 184.511C569.717 173.796 591.476 163.66 610.392 142.523C629.47 121.204 636.975 98.639 645.088 74.6664C653.202 50.6939 661.601 25.6753 682.296 2.55024C702.99 -20.5749 726.927 -31.6892 749.855 -42.4044C772.783 -53.1194 794.542 -63.2546 813.458 -84.3924C832.536 -105.711 840.041 -128.276 848.154 -152.249C856.268 -176.221 864.667 -201.24 885.362 -224.365C906.056 -247.49 929.992 -258.604 952.921 -269.319C975.849 -280.034 997.607 -290.17 1016.52 -311.307C1024.77 -320.521 1031.57 -331.029 1037.59 -343.21L1048.53 -337.978C1042.7 -325.293 1035.26 -314.063 1026.04 -303.765Z" fill="#078874" fill-opacity="0.49"/>
<path d="M981.604 -343.535C960.91 -320.41 936.973 -309.296 914.045 -298.58C891.117 -287.865 869.358 -277.73 850.442 -256.592C831.364 -235.274 823.86 -212.709 815.746 -188.736C807.632 -164.764 799.233 -139.745 778.538 -116.62C757.844 -93.4949 733.908 -82.3805 710.979 -71.6654C688.051 -60.9504 666.293 -50.8152 647.377 -29.6775C628.299 -8.35901 620.794 14.2062 612.68 38.1788C604.566 62.1513 596.167 87.1699 575.473 110.295C554.778 133.42 530.842 144.534 507.914 155.25C484.986 165.965 463.227 176.1 444.311 197.238C425.233 218.556 417.728 241.121 409.614 265.094C401.501 289.066 393.102 314.085 372.407 337.21C363.353 347.327 352.854 356.151 340.405 363.881L333.997 353.591C345.618 346.422 355.128 338.34 363.374 329.126C382.452 307.808 389.957 285.242 398.07 261.27C406.184 237.297 414.583 212.279 435.278 189.154C455.972 166.029 479.908 154.914 502.837 144.199C525.765 133.484 547.523 123.349 566.44 102.211C585.517 80.8927 593.022 58.3275 601.136 34.3549C609.25 10.3824 617.649 -14.6362 638.343 -37.7613C659.038 -60.8864 682.974 -72.0008 705.902 -82.7158C728.831 -93.4309 750.589 -103.566 769.505 -124.704C788.583 -146.022 796.088 -168.588 804.202 -192.56C812.315 -216.533 820.714 -241.551 841.409 -264.676C862.104 -287.801 886.04 -298.916 908.968 -309.631C931.896 -320.346 953.655 -330.481 972.571 -351.619C980.816 -360.833 987.617 -371.34 993.637 -383.521L1004.57 -378.29C998.267 -365.063 990.82 -353.833 981.604 -343.535Z" fill="#078874" fill-opacity="0.49"/>
<path d="M937.157 -383.312C916.462 -360.187 892.526 -349.073 869.598 -338.358C846.67 -327.643 824.911 -317.508 805.995 -296.37C786.917 -275.051 779.412 -252.486 771.299 -228.514C763.185 -204.541 754.786 -179.522 734.091 -156.397C713.397 -133.272 689.46 -122.158 666.532 -111.443C643.604 -100.728 621.845 -90.5925 602.929 -69.4548C583.851 -48.1363 576.347 -25.5711 568.233 -1.59856C560.119 22.374 551.72 47.3926 531.025 70.5177C510.331 93.6427 486.395 104.757 463.466 115.472C440.538 126.187 418.78 136.322 399.864 157.46C380.786 178.779 373.281 201.344 365.167 225.316C357.053 249.289 348.654 274.308 327.96 297.433C318.906 307.55 308.407 316.374 295.958 324.104L289.55 313.814C301.171 306.645 310.681 298.563 318.927 289.349C338.004 268.03 345.509 245.465 353.623 221.493C361.737 197.52 370.136 172.501 390.83 149.376C411.525 126.251 435.461 115.137 458.389 104.422C481.318 93.7067 503.076 83.5716 521.992 62.4338C541.07 41.1154 548.575 18.5502 556.689 -5.42239C564.802 -29.395 573.201 -54.4135 593.896 -77.5386C614.591 -100.664 638.527 -111.778 661.455 -122.493C684.383 -133.208 706.142 -143.343 725.058 -164.481C744.136 -185.8 751.641 -208.365 759.754 -232.337C767.868 -256.31 776.267 -281.328 796.962 -304.454C817.656 -327.579 841.593 -338.693 864.521 -349.408C887.449 -360.123 909.208 -370.258 928.124 -391.396C936.369 -400.61 943.169 -411.117 949.19 -423.298L960.125 -418.067C953.819 -404.84 946.373 -393.61 937.157 -383.312Z" fill="#078874" fill-opacity="0.49"/>
</g>
</svg>
